# xmcd
#
# Track frame offsets:
#	150
#	12450
#	24480
#	42580
#	56817
#	74097
#	88777
#	99542
#	105072
#	117482
#	129920
#	143160
#	157262
#	174072
#	188047
#	199437
#	213430
#	233635
#	244142
#	257320
#	266090
#	281805
#	294527
#	307060
#	319055
#
# Disc length: 4353
#
# Revision: 1
# Processed by: cddbd v1.5.1PL0 Copyright (c) Steve Scherf et al.
# Submitted via: ExactAudioCopy v0.95a3
# Normalized: r0:TDELIM( - )
#
DISCID=7810ff19
DTITLE=Various Artist - The Blues Collection Vol.1
DYEAR=1900
DGENRE=Blues
TTITLE0=Louis Armstrong - Jelly Roll Blues
TTITLE1=Duke Ellington - C Jam Blues
TTITLE2=Artie Shaw - Blues 1 and 2
TTITLE3=Woody Hermann - Blues On Parade
TTITLE4=John Lee Hooker - Blues Before Sunrise
TTITLE5=Lightnin' Hopkins - Santa Fe Blues
TTITLE6=The Dorsey Brothers - Dipper Mouth Blues
TTITLE7=Louis Jordan - Ration Blues
TTITLE8=Jimmy Reed - Honest I Do
TTITLE9=Count Basie - Swingin' The Blues
TTITLE10=Louis Arnstrong - Tin Roof Blues
TTITLE11=Nat King Cole - Blues
TTITLE12=Mike Bloomfield - Kansas City Blues
TTITLE13=Ray Charles - Baby Let Me Hold Your Hand
TTITLE14=Big Joe Williams - Bye Baby Blues
TTITLE15=Eric Clapton - Dragging My Tail
TTITLE16=Duke Ellington - St. Louis Blues
TTITLE17=Mike Bloomfield - RX For The Blues
TTITLE18=Billie Holiday - Billie's Blues
TTITLE19=John Lee Hooker - Hobo Blues
TTITLE20=Screamin Jay Hawkins - I Put A Spell On You
TTITLE21=Woody Herman - Blues Downstairs
TTITLE22=Ray Charles - Rockin Chair Blues
TTITLE23=Roy Brown - Boogie Woogie Blues
TTITLE24=Big Joe Williams - Terraplane Blues
EXTD=
EXTT0=
EXTT1=
EXTT2=
EXTT3=
EXTT4=
EXTT5=
EXTT6=
EXTT7=
EXTT8=
EXTT9=
EXTT10=
EXTT11=
EXTT12=
EXTT13=
EXTT14=
EXTT15=
EXTT16=
EXTT17=
EXTT18=
EXTT19=
EXTT20=
EXTT21=
EXTT22=
EXTT23=
EXTT24=
PLAYORDER=
